<svg width="125" height="125" viewBox="0 0 125 125" fill="none" xmlns="http://www.w3.org/2000/svg">
<path d="M0 62.5C0 27.9822 27.9822 0 62.5 0V0C97.0178 0 125 27.9822 125 62.5V125H0V62.5Z" fill="#F3AFA8"/>
<path d="M33.6743 99.4624L40.3257 99.4624L40.3257 92.5792L33.6743 92.5792L33.6743 99.4624ZM89.0506 43C89.0506 42.5344 88.6859 42.157 88.236 42.157L80.9043 42.157C80.4543 42.157 80.0896 42.5344 80.0896 43C80.0896 43.4656 80.4543 43.843 80.9043 43.843L87.4213 43.843L87.4213 50.5871C87.4213 51.0527 87.786 51.4301 88.236 51.4301C88.6859 51.4301 89.0506 51.0527 89.0506 50.5871L89.0506 43ZM37.576 96.6169L88.812 43.5961L87.6599 42.4039L36.424 95.4247L37.576 96.6169Z" fill="#2D2D2D"/>
</svg>
